<svg width="28" height="28" viewBox="0 0 28 28" fill="none" xmlns="http://www.w3.org/2000/svg">
<path d="M22.1667 8.16675C21.8572 8.16675 21.5605 8.28966 21.3417 8.50846C21.1229 8.72725 21 9.024 21 9.33341V22.3896C20.9665 22.9795 20.7013 23.5324 20.2621 23.9277C19.8229 24.323 19.2452 24.5287 18.655 24.5001H9.345C8.75478 24.5287 8.17715 24.323 7.73792 23.9277C7.2987 23.5324 7.03347 22.9795 7 22.3896V9.33341C7 9.024 6.87708 8.72725 6.65829 8.50846C6.4395 8.28966 6.14275 8.16675 5.83333 8.16675C5.52391 8.16675 5.22717 8.28966 5.00838 8.50846C4.78958 8.72725 4.66667 9.024 4.66667 9.33341V22.3896C4.69997 23.5985 5.21101 24.745 6.08788 25.5779C6.96474 26.4108 8.13595 26.8623 9.345 26.8334H18.655C19.864 26.8623 21.0353 26.4108 21.9121 25.5779C22.789 24.745 23.3 23.5985 23.3333 22.3896V9.33341C23.3333 9.024 23.2104 8.72725 22.9916 8.50846C22.7728 8.28966 22.4761 8.16675 22.1667 8.16675ZM23.3333 4.66675H18.6667V2.33341C18.6667 2.024 18.5437 1.72725 18.325 1.50846C18.1062 1.28966 17.8094 1.16675 17.5 1.16675H10.5C10.1906 1.16675 9.89383 1.28966 9.67504 1.50846C9.45625 1.72725 9.33333 2.024 9.33333 2.33341V4.66675H4.66667C4.35725 4.66675 4.0605 4.78966 3.84171 5.00846C3.62292 5.22725 3.5 5.524 3.5 5.83341C3.5 6.14283 3.62292 6.43958 3.84171 6.65837C4.0605 6.87716 4.35725 7.00008 4.66667 7.00008H23.3333C23.6428 7.00008 23.9395 6.87716 24.1583 6.65837C24.3771 6.43958 24.5 6.14283 24.5 5.83341C24.5 5.524 24.3771 5.22725 24.1583 5.00846C23.9395 4.78966 23.6428 4.66675 23.3333 4.66675ZM11.6667 4.66675V3.50008H16.3333V4.66675H11.6667Z" fill="#454545"/>
<path d="M12.8333 19.8333V11.6667C12.8333 11.3572 12.7104 11.0605 12.4916 10.8417C12.2728 10.6229 11.9761 10.5 11.6667 10.5C11.3572 10.5 11.0605 10.6229 10.8417 10.8417C10.6229 11.0605 10.5 11.3572 10.5 11.6667V19.8333C10.5 20.1428 10.6229 20.4395 10.8417 20.6583C11.0605 20.8771 11.3572 21 11.6667 21C11.9761 21 12.2728 20.8771 12.4916 20.6583C12.7104 20.4395 12.8333 20.1428 12.8333 19.8333ZM17.5 19.8333V11.6667C17.5 11.3572 17.3771 11.0605 17.1583 10.8417C16.9395 10.6229 16.6428 10.5 16.3333 10.5C16.0239 10.5 15.7272 10.6229 15.5084 10.8417C15.2896 11.0605 15.1667 11.3572 15.1667 11.6667V19.8333C15.1667 20.1428 15.2896 20.4395 15.5084 20.6583C15.7272 20.8771 16.0239 21 16.3333 21C16.6428 21 16.9395 20.8771 17.1583 20.6583C17.3771 20.4395 17.5 20.1428 17.5 19.8333Z" fill="#454545"/>
</svg>
