<svg width="60" height="60" viewBox="0 0 60 60" fill="none" xmlns="http://www.w3.org/2000/svg">
<g clip-path="url(#clip0_160_1163)">
<path d="M21.8657 41.7031H12.7281V30.4062H6V53H28.5938V30.4062H21.8657V41.7031Z" fill="white"/>
<path d="M15.5405 30.4062H19.0532V38.8906H15.5405V30.4062ZM47.2719 41.7031H38.1343V30.4062H31.4062V53H54V30.4062H47.2719V41.7031Z" fill="white"/>
<path d="M40.9468 30.4062H44.4595V38.8906H40.9468V30.4062ZM47.2719 5V16.2969H38.1343V5H31.4062V27.5938H54V5H47.2719Z" fill="white"/>
<path d="M40.9468 5H44.4595V13.4844H40.9468V5ZM15.9272 16.8793V5.08747C10.3593 5.78188 6.03662 10.5439 6.03662 16.2969C6.03662 22.526 11.1044 27.5938 17.3335 27.5938C19.9423 27.5938 22.3471 26.7044 24.2615 25.2136L15.9272 16.8793Z" fill="white"/>
<path d="M20.7285 17.7031L26.2502 23.2248C27.469 21.6598 28.2855 19.7671 28.5429 17.7031H20.7285ZM18.7397 14.8906H28.543C27.906 9.78353 23.8468 5.72434 18.7397 5.0874V14.8906Z" fill="white"/>
</g>
<defs>
<clipPath id="clip0_160_1163">
<rect width="48" height="48" fill="white" transform="translate(6 5)"/>
</clipPath>
</defs>
</svg>
