<svg width="60" height="60" viewBox="0 0 60 60" fill="none" xmlns="http://www.w3.org/2000/svg">
<g clip-path="url(#clip0_160_1136)">
<path d="M29.9469 47.6457C43.1039 47.6457 53.7697 36.9798 53.7697 23.8228C53.7697 10.6658 43.1039 0 29.9469 0C16.7899 0 6.12402 10.6658 6.12402 23.8228C6.12402 36.9798 16.7899 47.6457 29.9469 47.6457Z" fill="white"/>
<path d="M10.6477 37.7598L2.45081 51.9685L12.0177 51.4606L16.3642 60L23.9469 46.8543C18.5138 45.4488 13.8484 42.1772 10.6477 37.7598ZM49.2933 37.689C46.1162 42.1181 41.4508 45.4016 36.0295 46.8307L43.6358 60L47.9823 51.4606L57.5492 51.9685L49.2933 37.689Z" fill="white"/>
<path d="M29.9469 41.0906C39.4836 41.0906 47.2146 33.3596 47.2146 23.8229C47.2146 14.2862 39.4836 6.55518 29.9469 6.55518C20.4102 6.55518 12.6791 14.2862 12.6791 23.8229C12.6791 33.3596 20.4102 41.0906 29.9469 41.0906Z" fill="#454545"/>
<path d="M41.7815 21.9567C42.313 21.437 42.0178 20.5276 41.2855 20.4213L34.4705 19.4291C34.1752 19.3819 33.9272 19.2047 33.7973 18.9331L30.75 12.7559C30.4193 12.0827 29.4626 12.0827 29.1319 12.7559L26.0965 18.9331C25.9666 19.1929 25.7067 19.3819 25.4233 19.4291L18.6083 20.4213C17.876 20.5276 17.5808 21.437 18.1123 21.9567L23.0374 26.7638C23.25 26.9764 23.3445 27.2716 23.2973 27.5551L22.1398 34.3346C22.0099 35.0669 22.7894 35.6339 23.4508 35.2795L29.5453 32.0787C29.8052 31.937 30.1241 31.937 30.3839 32.0787L36.4784 35.2795C37.1398 35.622 37.9075 35.0669 37.7894 34.3346L36.6201 27.5551C36.5729 27.2598 36.6674 26.9646 36.88 26.7638L41.7815 21.9567Z" fill="white"/>
</g>
<defs>
<clipPath id="clip0_160_1136">
<rect width="60" height="60" fill="white"/>
</clipPath>
</defs>
</svg>
