<svg width="60" height="60" viewBox="0 0 60 60" fill="none" xmlns="http://www.w3.org/2000/svg">
<path d="M56.0812 29.25L51.9375 19.875C51.7924 19.5425 51.554 19.2593 51.2511 19.0596C50.9483 18.8599 50.594 18.7524 50.2313 18.75H40.2L40.8 13.3313C40.8295 13.0682 40.803 12.8019 40.7222 12.5498C40.6414 12.2977 40.5082 12.0656 40.3312 11.8687C40.1559 11.6745 39.9419 11.5191 39.703 11.4126C39.464 11.306 39.2054 11.2506 38.9437 11.25H13.125C12.6277 11.25 12.1508 11.4475 11.7992 11.7992C11.4475 12.1508 11.25 12.6277 11.25 13.125C11.25 13.6223 11.4475 14.0992 11.7992 14.4508C12.1508 14.8025 12.6277 15 13.125 15H22.5C22.9973 15 23.4742 15.1975 23.8258 15.5492C24.1775 15.9008 24.375 16.3777 24.375 16.875C24.375 17.3723 24.1775 17.8492 23.8258 18.2008C23.4742 18.5525 22.9973 18.75 22.5 18.75H9.375C8.87772 18.75 8.40081 18.9475 8.04918 19.2992C7.69754 19.6508 7.5 20.1277 7.5 20.625C7.5 21.1223 7.69754 21.5992 8.04918 21.9508C8.40081 22.3025 8.87772 22.5 9.375 22.5H28.125C28.6223 22.5 29.0992 22.6975 29.4508 23.0492C29.8025 23.4008 30 23.8777 30 24.375C30 24.8723 29.8025 25.3492 29.4508 25.7008C29.0992 26.0525 28.6223 26.25 28.125 26.25H15C14.5027 26.25 14.0258 26.4475 13.6742 26.7992C13.3225 27.1508 13.125 27.6277 13.125 28.125C13.125 28.6223 13.3225 29.0992 13.6742 29.4508C14.0258 29.8025 14.5027 30 15 30H22.5C22.9973 30 23.4742 30.1975 23.8258 30.5492C24.1775 30.9008 24.375 31.3777 24.375 31.875C24.375 32.3723 24.1775 32.8492 23.8258 33.2008C23.4742 33.5525 22.9973 33.75 22.5 33.75H7.5C7.00272 33.75 6.52581 33.9475 6.17417 34.2992C5.82254 34.6508 5.625 35.1277 5.625 35.625C5.625 36.1223 5.82254 36.5992 6.17417 36.9508C6.52581 37.3025 7.00272 37.5 7.5 37.5H11.25C11.7473 37.5 12.2242 37.6975 12.5758 38.0492C12.9275 38.4008 13.125 38.8777 13.125 39.375C13.125 39.8723 12.9275 40.3492 12.5758 40.7008C12.2242 41.0525 11.7473 41.25 11.25 41.25H9.375C8.87772 41.25 8.40081 41.4475 8.04918 41.7992C7.69754 42.1508 7.5 42.6277 7.5 43.125C7.5 43.6223 7.69754 44.0992 8.04918 44.4508C8.40081 44.8025 8.87772 45 9.375 45H14.7187C14.9212 45.7908 15.3066 46.5229 15.8437 47.1375C16.299 47.6465 16.8568 48.0533 17.4805 48.3312C18.1042 48.6091 18.7797 48.7518 19.4625 48.75C20.618 48.717 21.738 48.3435 22.6819 47.6763C23.6259 47.0092 24.3519 46.0782 24.7687 45H39.0938C39.2962 45.7908 39.6816 46.5229 40.2188 47.1375C40.674 47.6465 41.2318 48.0533 41.8555 48.3312C42.4792 48.6091 43.1547 48.7518 43.8375 48.75C44.993 48.717 46.1129 48.3435 47.0569 47.6763C48.0009 47.0092 48.7269 46.0782 49.1437 45H52.8937C53.3573 45.0028 53.8054 44.8338 54.1517 44.5257C54.4979 44.2175 54.7178 43.792 54.7687 43.3312L56.2125 30.2062C56.2639 29.8815 56.2182 29.5489 56.0812 29.25ZM19.4625 45C19.307 45.0067 19.152 44.9782 19.0092 44.9165C18.8663 44.8548 18.7392 44.7615 18.6375 44.6437C18.4903 44.4617 18.3826 44.2509 18.3213 44.025C18.26 43.799 18.2463 43.5628 18.2812 43.3312C18.3291 42.8048 18.5564 42.3108 18.9251 41.9319C19.2937 41.553 19.7813 41.3123 20.3062 41.25C20.4617 41.2433 20.6167 41.2718 20.7596 41.3335C20.9025 41.3952 21.0295 41.4885 21.1312 41.6062C21.2784 41.7883 21.3861 41.9991 21.4474 42.225C21.5088 42.451 21.5224 42.6872 21.4875 42.9187C21.4396 43.4452 21.2123 43.9392 20.8437 44.3181C20.475 44.697 19.9874 44.9377 19.4625 45ZM43.8375 45C43.682 45.0067 43.527 44.9782 43.3842 44.9165C43.2413 44.8548 43.1142 44.7615 43.0125 44.6437C42.8653 44.4617 42.7576 44.2509 42.6963 44.025C42.635 43.799 42.6213 43.5628 42.6562 43.3312C42.7041 42.8048 42.9314 42.3108 43.3001 41.9319C43.6687 41.553 44.1563 41.3123 44.6812 41.25C44.8367 41.2433 44.9917 41.2718 45.1346 41.3335C45.2775 41.3952 45.4045 41.4885 45.5062 41.6062C45.6534 41.7883 45.7611 41.9991 45.8224 42.225C45.8838 42.451 45.8974 42.6872 45.8625 42.9187C45.8146 43.4452 45.5873 43.9392 45.2187 44.3181C44.85 44.697 44.3624 44.9377 43.8375 45ZM52.275 31.875H43.9875C43.7259 31.8744 43.4672 31.819 43.2283 31.7124C42.9893 31.6059 42.7753 31.4505 42.6 31.2562C42.4231 31.0594 42.2898 30.8273 42.209 30.5752C42.1282 30.3231 42.1017 30.0568 42.1312 29.7937L42.75 24.1687C42.8053 23.7114 43.027 23.2904 43.3728 22.9861C43.7186 22.6818 44.1643 22.5154 44.625 22.5187H48.9937L52.5 30.3L52.275 31.875Z" fill="white"/>
<path d="M7.5 30C7.99728 30 8.47419 29.8025 8.82582 29.4508C9.17746 29.0992 9.375 28.6223 9.375 28.125C9.375 27.6277 9.17746 27.1508 8.82582 26.7992C8.47419 26.4475 7.99728 26.25 7.5 26.25H5.625C5.12772 26.25 4.65081 26.4475 4.29917 26.7992C3.94754 27.1508 3.75 27.6277 3.75 28.125C3.75 28.6223 3.94754 29.0992 4.29917 29.4508C4.65081 29.8025 5.12772 30 5.625 30H7.5Z" fill="white"/>
</svg>
